<svg width="402" height="111" viewBox="0 0 402 111" fill="none" xmlns="http://www.w3.org/2000/svg">
<path d="M74.2663 83.6671C70.3512 70.9514 65.8244 68.5571 60.3417 66.3854C73.2799 62.794 83.4041 53.3628 83.4041 36.2192C83.4118 6.45205 60.4947 0.788696 48.9405 0.788696C31.7069 0.788696 0.445312 1.00115 0.445312 1.00115C0.445312 1.00115 0.445312 19.33 0.445312 25.6215C0.445312 44.7756 0.445312 44.7756 0.445312 110.564H27.8204C25.8399 107.917 24.6241 102.821 24.4788 92.0854C24.4177 87.2048 24.4788 70.4756 24.4788 70.4756C31.9879 70.4756 41.5156 70.3605 46.616 76.7606C51.1428 82.4393 55.0426 93.3746 60.357 110.787H90.3244C83.4041 105.921 79.0379 99.1607 74.2663 83.6671ZM40.7051 52.6107C33.2037 52.6107 24.4635 52.6107 24.4635 52.6107C24.4635 52.6107 24.4788 25.9285 24.4788 20.5797C24.4788 20.5797 34.8554 20.5797 40.7051 20.5797C51.2346 20.5797 60.3035 23.7568 60.3035 35.4595C60.2959 47.1622 53.2533 52.6107 40.7051 52.6107Z" fill="#ffffff"/>
<path d="M401.554 69.3759C401.453 54.9949 395.101 40.6365 382.898 33.6792C366.467 24.3225 341.006 26.1202 328.149 41.321C312.666 59.6281 316.535 93.3994 337.617 105.193C353.984 114.347 379.158 112.579 391.992 97.5738C398.489 89.9997 401.626 79.6878 401.554 69.3759ZM360.135 91.8123C355.384 91.7597 350.574 89.4506 347.358 84.8926C344.516 80.8611 343.109 75.3254 343.102 69.3759C343.109 63.4189 344.509 57.8832 347.358 53.8592C350.574 49.3012 355.384 46.9996 360.135 46.9395C364.887 46.9921 369.69 49.3012 372.913 53.8592C375.755 57.8907 377.162 63.4265 377.169 69.3759C377.162 75.3329 375.762 80.8687 372.913 84.8926C369.697 89.4506 364.887 91.7597 360.135 91.8123Z" fill="#ffffff"/>
<path d="M287.247 90.9249C278.619 90.9249 266.009 84.8693 266.009 69.3679C266.009 53.8666 278.619 47.8109 287.247 47.8109C294.043 47.8109 301.829 49.9614 307.231 53.6052C307.231 53.6052 309.394 46.6386 314.643 37.8127C306.484 31.2567 293.471 27.9489 283.112 27.9489C264.396 27.9489 241.311 38.985 241.311 69.3679C241.311 99.7509 264.396 110.787 283.112 110.787C293.471 110.787 306.484 107.479 314.643 100.923C309.394 92.0973 307.231 85.1306 307.231 85.1306C301.829 88.7745 294.043 90.9249 287.247 90.9249Z" fill="#ffffff"/>
<path d="M199.49 91.3237C217.455 82.4028 233.177 73.2745 234.081 56.3877C234.597 46.83 230.837 38.5087 224.213 33.8003C210.936 24.3611 189.823 26.8412 177.413 37.6574C164.921 48.5476 162.162 62.6805 164.33 78.0793C164.666 80.4483 165.945 83.8909 166.61 86.0748C158.454 89.3323 146.963 92.4268 137.11 93.0635C131.488 93.4263 125.918 92.5823 121.044 90.924C121.044 90.924 136.713 84.757 146.462 76.458C160.756 64.2944 158.558 41.9735 147.053 33.8003C133.775 24.3611 112.663 26.8412 100.253 37.6574C87.7603 48.5476 85.0017 62.6805 87.1697 78.0793C88.8668 90.154 94.7504 100 105.935 105.434C114.166 109.432 122.075 110.765 134.269 110.765C152.884 110.765 168.928 103.48 176.202 100.963C178.235 102.666 189.285 110.787 205.762 110.787C216.206 110.787 230.007 109.44 241.311 102.251C237.999 97.313 235.494 91.8938 234.096 86.3784C226.919 90.4279 213.081 95.3585 199.49 91.3237ZM114.943 52.5972C118.636 47.4297 126.531 43.4319 132.512 47.3853C138.762 51.5237 136.003 58.3643 132.632 62.2289C126.568 69.1509 118.861 72.4232 110.742 75.651C110.248 71.6162 109.8 59.8006 114.943 52.5972ZM192.111 52.5972C195.804 47.4297 203.699 43.4319 209.68 47.3853C215.93 51.5237 213.634 59.7858 210.255 63.6429C204.192 70.5649 196.656 73.926 188.537 77.1539C186.668 70.4613 186.96 59.8006 192.111 52.5972Z" fill="#ffffff"/>
</svg>
